<mxfile host="app.diagrams.net" modified="2023-09-21T02:07:23.756Z" agent="Mozilla/5.0 (Windows NT 10.0; Win64; x64) AppleWebKit/537.36 (KHTML, like Gecko) Chrome/116.0.0.0 Safari/537.36 Edg/116.0.1938.81" etag="2Im39MuZPTNKvUzbsKM7" version="21.8.0" type="github">
  <diagram name="第 1 页" id="wsy2Y0C-jNsH43Zb2opl">
    <mxGraphModel dx="821" dy="1075" grid="1" gridSize="10" guides="1" tooltips="1" connect="1" arrows="1" fold="1" page="1" pageScale="1" pageWidth="827" pageHeight="1169" math="0" shadow="0">
      <root>
        <mxCell id="0" />
        <mxCell id="1" parent="0" />
        <mxCell id="ht90bCS8s7boRR_IDEU3-1" value="Actor" style="shape=umlActor;verticalLabelPosition=bottom;verticalAlign=top;html=1;outlineConnect=0;" parent="1" vertex="1">
          <mxGeometry x="200" y="300" width="30" height="60" as="geometry" />
        </mxCell>
        <mxCell id="ht90bCS8s7boRR_IDEU3-2" value="Actor" style="shape=umlActor;verticalLabelPosition=bottom;verticalAlign=top;html=1;outlineConnect=0;" parent="1" vertex="1">
          <mxGeometry x="370" y="300" width="30" height="60" as="geometry" />
        </mxCell>
        <mxCell id="ht90bCS8s7boRR_IDEU3-3" value="Actor" style="shape=umlActor;verticalLabelPosition=bottom;verticalAlign=top;html=1;outlineConnect=0;" parent="1" vertex="1">
          <mxGeometry x="280" y="170" width="30" height="60" as="geometry" />
        </mxCell>
      </root>
    </mxGraphModel>
  </diagram>
</mxfile>
